<svg version="1.1" id="Layer_1" xmlns="http://www.w3.org/2000/svg" xmlns:xlink="http://www.w3.org/1999/xlink" x="0px" y="0px"
	 width="100%" viewBox="0 0 448 448" enable-background="new 0 0 448 448" xml:space="preserve">
<path fill="#000000" opacity="1.000000" stroke="none" 
	d="
M249.000000,449.000000 
	C166.023010,449.000000 83.546005,449.000000 1.034505,449.000000 
	C1.034505,299.731323 1.034505,150.462616 1.034505,1.096963 
	C150.226990,1.096963 299.454071,1.096963 448.840576,1.096963 
	C448.840576,150.333191 448.840576,299.666595 448.840576,449.000000 
	C382.462616,449.000000 315.981293,449.000000 249.000000,449.000000 
M182.014206,376.809601 
	C185.277695,377.747894 188.468826,379.832733 191.923447,377.145325 
	C192.368134,376.799377 193.639847,377.041718 194.239609,377.443115 
	C200.509476,381.639252 208.007828,380.848663 214.898926,382.416473 
	C218.251724,383.179321 219.531494,384.345276 219.372192,387.548462 
	C219.289520,389.210754 219.321426,390.880676 219.352081,392.546234 
	C219.403214,395.323944 218.885101,397.334045 215.358490,397.517761 
	C211.507172,397.718384 211.523422,400.209106 213.301956,402.723938 
	C217.075134,408.059204 219.588989,414.063171 222.732574,419.730072 
	C224.858871,423.563080 227.034943,423.559906 229.190399,419.766266 
	C231.738007,415.282379 233.856827,410.544220 236.568710,406.168671 
	C237.969986,403.907776 239.176361,401.867798 238.176590,399.256775 
	C237.004257,396.195129 234.164108,398.164795 232.661957,397.788055 
	C232.661957,393.962402 232.641556,390.482971 232.669495,387.003937 
	C232.686569,384.878479 233.062958,382.551666 235.735596,382.799591 
	C241.034805,383.291260 245.863388,381.201080 250.907913,380.416107 
	C256.316345,379.574493 261.993164,379.591980 267.097565,378.135773 
	C280.679626,374.261047 293.715485,368.734772 306.146393,361.917450 
	C308.139801,360.824310 309.474548,358.794769 312.126984,358.582947 
	C317.613037,358.144806 322.456238,355.582031 326.288574,351.937439 
	C330.014435,348.394104 333.897125,347.785553 338.141632,349.545685 
	C344.178162,352.048859 350.706268,352.372253 356.851868,354.351929 
	C359.399109,355.172455 362.216919,354.888763 363.936676,352.124146 
	C367.413055,346.535797 371.933258,341.715546 373.982758,335.084381 
	C375.570068,329.948730 378.849945,325.312531 381.542755,320.529907 
	C385.587036,313.347015 390.585175,306.729065 393.421265,298.709045 
	C394.782684,294.859039 395.518768,289.641052 399.617859,287.262665 
	C402.366119,285.668030 403.791718,283.509430 404.755249,280.880524 
	C406.842163,275.186432 408.409698,269.317566 411.873230,264.170532 
	C413.210602,262.183075 413.331879,259.351532 411.630615,257.560608 
	C406.851593,252.529831 404.477722,245.593018 398.366211,241.584641 
	C394.291382,238.912079 392.533234,235.062393 392.509277,229.736588 
	C392.410736,207.815506 394.221588,185.858765 386.983826,164.298645 
	C382.951965,152.288452 377.899872,140.932968 372.315552,129.698608 
	C371.528961,128.116165 369.735138,126.890350 371.851929,125.007988 
	C374.793732,122.392029 377.756714,119.932030 381.402710,118.213448 
	C384.376160,116.811852 386.378937,116.042694 388.059814,119.880737 
	C388.995026,122.016106 391.258087,123.487579 392.841339,120.249046 
	C394.771790,116.300247 397.740021,113.163185 400.174103,109.620941 
	C402.055969,106.882271 404.112885,103.888908 403.762360,100.205002 
	C400.867737,99.403915 382.262177,98.969818 380.214417,99.474106 
	C377.557159,100.128479 377.880951,101.802299 378.561981,103.715073 
	C379.106049,105.243217 380.263245,107.061401 378.393921,108.238770 
	C373.680176,111.207642 368.812439,113.931992 363.829926,116.857979 
	C362.555176,114.404137 361.843018,112.276047 360.516052,110.649551 
	C358.310120,107.945686 357.101685,103.977280 351.658508,105.636154 
	C349.169891,106.394600 346.370087,102.936806 345.671753,99.940392 
	C344.971802,96.937096 340.306000,89.854309 337.499878,89.541306 
	C330.932739,88.808754 326.270966,84.541000 321.560883,80.803223 
	C314.076324,74.863686 305.925537,70.402390 297.031250,67.158524 
	C294.663666,66.295021 293.449707,64.851959 292.509918,62.394756 
	C290.540070,57.244404 290.739227,51.708504 288.791687,46.519619 
	C284.823669,35.947441 279.044983,31.379240 267.935303,31.365961 
	C261.997742,31.358864 255.648315,33.209030 250.304977,32.353088 
	C238.147827,30.405643 225.860794,32.648808 213.748383,29.534563 
	C205.071152,27.303551 196.165024,32.374649 187.109863,31.281265 
	C184.321304,30.944555 181.440643,31.448013 178.621811,31.264519 
	C175.308273,31.048824 173.158646,32.400772 172.060196,35.428291 
	C169.460770,42.592899 165.275284,49.051666 163.111115,56.452332 
	C162.020432,60.181992 161.337555,64.130127 157.122345,66.765327 
	C149.511917,71.523102 141.164871,74.809975 133.581421,79.538933 
	C125.256432,84.730278 117.215202,90.264603 109.698502,96.637169 
	C106.351814,99.474434 102.497337,101.343201 104.618019,106.852051 
	C99.648636,106.400177 96.655693,108.070358 94.550346,112.270798 
	C92.133209,117.093315 90.671906,117.126686 85.926521,113.969734 
	C83.714653,112.498245 81.610115,110.807602 79.249290,109.633965 
	C76.851006,108.441689 76.007797,106.719551 76.760078,104.380157 
	C78.146126,100.069939 75.527184,99.424713 72.357574,99.371399 
	C67.193871,99.284531 62.023624,99.229805 56.863548,99.394180 
	C52.518417,99.532616 51.454777,101.455925 53.802357,105.206589 
	C56.279755,109.164658 58.296673,113.217026 59.973175,117.622665 
	C62.633404,124.613434 65.559753,124.772850 69.802429,118.942482 
	C70.291893,118.269844 70.623062,117.482010 70.896255,116.986061 
	C74.909180,118.507004 76.710236,121.600647 79.826035,122.990089 
	C86.585938,126.004562 86.504448,126.144539 82.358070,132.567993 
	C79.865494,136.429413 76.322319,139.477539 75.118118,144.336716 
	C72.532150,154.771637 70.387421,165.553970 66.423759,175.350754 
	C62.067383,186.118149 61.644623,197.238541 59.687927,208.161743 
	C57.650021,219.538315 61.044559,231.200424 59.923656,242.790787 
	C54.385017,242.915176 54.325016,242.858307 49.889057,247.538498 
	C47.281025,250.290115 44.877026,253.176224 41.875496,255.596924 
	C38.524475,258.299500 38.401016,261.892059 41.038181,265.352081 
	C43.494293,268.574585 45.153847,272.221710 46.610916,275.928375 
	C50.885567,286.802704 57.584106,296.947449 66.436188,305.626770 
	C67.004204,306.183716 67.435226,307.008362 67.641647,307.785095 
	C68.891068,312.486420 70.782906,317.118073 73.622238,320.828308 
	C76.692650,324.840515 76.018730,330.361755 79.417488,333.681793 
	C84.553986,338.699280 88.132111,344.221313 89.728569,351.316772 
	C90.707977,355.669739 94.702171,356.193909 99.200485,355.691681 
	C105.829361,354.951538 110.519020,351.216919 115.740891,347.205872 
	C117.429008,351.136292 120.756027,350.555054 123.854218,350.631012 
	C128.016479,350.733002 132.294128,351.746460 134.210052,355.410004 
	C135.873108,358.589996 139.348419,358.079102 141.140274,360.588226 
	C143.926422,364.489655 146.312744,359.798340 148.975266,359.838684 
	C149.375565,359.844757 149.771439,360.143188 150.602371,360.483948 
	C147.399521,364.589813 141.903702,367.139130 142.473892,373.255981 
	C144.198486,373.563873 144.560638,372.515015 145.157166,371.749512 
	C149.641800,365.994476 149.600586,366.093933 156.139954,369.229126 
	C164.072250,373.032135 172.094894,376.643188 182.014206,376.809601 
z"/>
<path fill="#000000" opacity="1.000000" stroke="none" 
	d="
M156.194641,167.407242 
	C144.167038,167.188065 144.416901,167.212769 143.279587,178.719345 
	C142.831421,183.253586 142.518616,188.412048 137.168427,190.783264 
	C136.364014,191.139771 135.461899,191.914673 135.693466,193.171326 
	C137.228653,194.604080 138.875687,192.971313 140.759323,193.417587 
	C141.568008,197.763489 142.477158,199.529144 148.372955,197.250534 
	C157.903015,193.567307 168.216339,190.945618 178.828033,192.911575 
	C180.710510,193.260330 181.690796,192.405243 182.367340,190.943802 
	C182.982651,189.614655 183.770142,188.607361 185.370789,188.919601 
	C186.748062,189.188278 187.150482,190.355667 187.223236,191.561142 
	C187.355072,193.745209 188.837799,195.146164 190.021210,196.748337 
	C192.912903,197.601700 195.119125,194.416183 198.439774,195.382309 
	C196.708206,199.389282 199.322266,201.680084 201.589310,204.361053 
	C207.354370,211.178680 212.717896,218.122375 215.829086,226.861069 
	C217.200745,230.713837 218.071075,234.271835 218.152405,238.435715 
	C215.905228,238.728668 214.833023,235.660583 212.127045,236.354050 
	C212.269608,238.823593 211.924896,241.300491 211.465195,243.786514 
	C210.912018,246.778152 211.192764,249.470016 213.465912,252.443161 
	C217.089188,257.182220 219.174454,262.939697 217.062607,269.298248 
	C216.095963,272.208740 213.715347,273.166443 211.196976,273.910461 
	C212.531235,279.155762 210.672256,283.038269 205.869400,285.414917 
	C205.722397,285.487640 205.432617,285.477905 205.408371,285.563202 
	C203.603455,291.909302 196.755173,292.437622 193.000320,296.414642 
	C190.802963,298.742004 188.159470,298.977661 185.597824,299.986359 
	C176.045700,303.747498 166.392136,304.751312 156.446457,301.681702 
	C155.210220,301.300201 153.789642,301.305603 152.477661,301.413513 
	C143.128021,302.182373 136.893005,297.634735 132.115433,290.062256 
	C130.335617,287.241211 127.242477,285.488892 124.959358,282.918243 
	C120.878754,278.323730 118.819305,273.214142 117.270081,266.721222 
	C125.315819,266.721222 133.205765,266.536224 141.078201,266.826385 
	C143.665314,266.921753 145.257355,269.504517 146.666183,271.491058 
	C150.121002,276.362518 154.920151,278.304596 160.620758,278.622803 
	C163.897476,278.805725 167.294281,278.055603 170.319702,280.101990 
	C171.151398,280.664551 172.615417,280.870209 173.124222,280.071960 
	C175.620636,276.155426 180.523621,275.761566 183.526398,272.798950 
	C188.899796,267.497467 192.577042,261.282654 192.621124,253.363846 
	C192.640717,249.844894 192.010208,246.112000 194.692169,243.114136 
	C189.204803,235.756729 188.167404,226.668228 184.249985,218.712082 
	C181.177139,215.931473 177.485519,213.990921 173.347015,219.478714 
	C172.598434,213.601410 177.999496,214.518127 178.787659,211.591919 
	C175.406387,208.806900 172.521805,209.132278 169.524460,213.191818 
	C167.669067,215.704712 165.115097,217.089050 162.455643,217.140015 
	C155.599731,217.271408 149.725418,220.500763 143.411346,222.316086 
	C135.895355,224.476990 128.169144,223.787277 120.677002,222.868057 
	C117.503098,222.478653 116.749695,217.935242 116.699272,214.566483 
	C116.584564,206.904602 116.635803,199.240189 116.622200,191.576813 
	C116.599152,178.582870 116.681923,165.587479 116.502815,152.595703 
	C116.435417,147.706421 117.620247,144.392242 123.263344,144.399490 
	C125.744293,144.402679 127.528275,142.701340 129.640350,141.333191 
	C131.412811,142.266891 132.311096,144.697556 134.858047,144.541290 
	C136.369583,144.448563 137.223236,145.489624 137.355042,147.081604 
	C137.491272,148.726929 137.474533,150.994186 139.526611,151.030075 
	C141.941452,151.072311 144.951401,150.517578 145.856552,147.937622 
	C147.100311,144.392532 149.683105,144.165436 152.552628,144.162201 
	C161.547302,144.152054 170.544388,144.113815 179.535751,144.307846 
	C183.670212,144.397095 186.892593,143.371445 189.203735,139.658020 
	C191.155273,136.522385 194.342300,135.353821 198.027954,135.107635 
	C198.027954,135.784805 198.162491,136.235565 198.007431,136.384201 
	C196.193665,138.122894 192.607941,138.966156 193.653625,142.282425 
	C194.847183,146.067612 198.439407,144.247589 201.040939,144.354507 
	C205.328369,144.530685 209.628326,144.402298 213.643814,144.402298 
	C214.765976,147.255814 213.199448,148.338058 212.029236,149.332260 
	C207.637787,153.063110 204.364883,157.684280 201.631042,162.636765 
	C199.684708,166.162643 197.074066,167.475571 193.149841,167.433182 
	C180.990036,167.301849 168.827759,167.399979 156.194641,167.407242 
z"/>
<path fill="#000000" opacity="1.000000" stroke="none" 
	d="
M240.565674,218.906387 
	C241.491287,194.084686 238.146439,169.674591 242.412888,144.851501 
	C246.698868,144.145889 252.964355,146.234573 255.037247,138.878082 
	C257.318909,140.795349 258.760101,142.556870 261.301636,142.886673 
	C263.790131,143.209579 263.307861,145.628708 263.328461,147.358704 
	C263.401917,153.522903 263.347076,159.688614 263.346619,165.853745 
	C263.345673,178.600372 263.334564,191.347031 263.362549,204.093597 
	C263.367554,206.372543 263.081909,208.755692 264.883453,210.961731 
	C268.957489,209.175293 270.569244,205.268173 272.326263,201.973984 
	C276.962128,193.282288 284.477600,186.671509 289.048462,177.995941 
	C292.081268,172.239563 296.265717,167.313538 300.264587,162.251480 
	C303.946503,157.590683 305.734833,151.641434 310.631958,147.744659 
	C312.963715,145.889191 315.094208,144.539444 318.173706,144.611099 
	C324.294250,144.753464 330.420380,144.653214 336.955017,144.653214 
	C336.599670,151.006805 333.181549,155.365692 329.845703,158.714386 
	C322.984894,165.601624 320.251953,175.011581 313.872711,182.119080 
	C307.887482,188.787521 304.039581,197.026260 299.051971,204.443314 
	C297.117798,207.319672 296.002808,210.180466 300.128082,212.230545 
	C300.754608,212.541901 301.363159,212.750885 301.378510,213.557465 
	C301.509613,220.441162 305.284119,226.257111 307.710144,232.286148 
	C310.094421,238.211517 311.741882,244.953430 316.962372,249.541656 
	C318.376862,250.784836 319.037354,252.469543 319.451294,254.326965 
	C322.109497,266.254974 327.707245,276.801056 334.049194,287.168610 
	C336.598663,291.336365 336.382660,297.049011 339.711761,301.866852 
	C334.259583,304.210724 329.266022,302.720428 324.476807,303.209259 
	C317.449463,303.926514 315.015015,300.314484 312.029633,294.406219 
	C304.040314,278.595276 297.750458,262.072968 290.254974,246.076813 
	C288.350525,242.012512 286.146606,238.079834 283.917389,234.179779 
	C282.622223,231.913864 281.267944,231.206818 278.961823,233.694305 
	C273.377655,239.717529 270.243835,247.364761 265.120300,253.688110 
	C262.022430,257.511353 262.829193,262.461182 263.532043,266.746857 
	C264.621704,273.391296 262.403198,279.522675 261.790497,285.879517 
	C261.546326,288.412964 261.342010,290.679535 262.280273,293.155212 
	C264.991425,300.308899 263.039703,303.164581 255.627563,303.303833 
	C253.295471,303.347656 250.962112,303.351105 248.629547,303.337799 
	C241.085693,303.294800 237.903702,298.380768 241.370758,291.435638 
	C242.673126,288.826843 244.116898,287.048370 241.209244,284.646637 
	C240.442490,284.013336 240.522797,282.140106 240.515228,280.834503 
	C240.414734,263.518433 240.353638,246.202057 240.320892,228.885681 
	C240.314911,225.721939 240.479034,222.557877 240.565674,218.906387 
z"/>
</svg>